<svg xmlns="http://www.w3.org/2000/svg" width="1600" height="1430" viewBox="0 0 1600 1430" role="img" aria-label="Mafsil identity review: light and dark logos, icon sizes, palette and social preview"><title>Mafsil identity review: light and dark logos, icon sizes, palette and social preview</title><rect width="1600" height="1430" fill="#f5f2e9"/><text x="70" y="75" fill="#697c80" font-family="Segoe UI,DejaVu Sans,sans-serif" font-size="21" font-weight="600">MAFSIL  /  IDENTITY PROPOSAL</text><text x="70" y="145" fill="#1c2c32" font-family="Segoe UI,DejaVu Sans,sans-serif" font-size="44" font-weight="600">A clear connection. A deliberate boundary.</text><g transform="translate(55 205) scale(.84)"><rect width="860" height="230" fill="#f5f2e9"/><g transform="translate(48 34) scale(1.28)"><path fill="#1c2c32" d="M18 96V24h22l24 24v28L40 52v44z"/><path fill="#ea693c" d="M68 48l22-24h22v72H90V52L68 76z"/></g><g transform="translate(243 59) scale(1.58)" fill="none" stroke="#1c2c32" stroke-width="7" stroke-linecap="round" stroke-linejoin="round"><path d="M0 56V24Q0 12 12 12Q24 12 24 24V56M24 24Q24 12 36 12Q48 12 48 24V56 M106 12V56M106 34a22 22 0 1 0-44 0a22 22 0 1 0 44 0 M126 56V10Q126-6 145-6M115 18H143 M183 18C169 6 150 13 152 25C153 38 180 33 181 46C182 59 162 62 150 51 M203 26V56 M225-5V44Q225 56 238 56"/><circle cx="203" cy="8" r="0.8" stroke-width="8"/></g><text x="242" y="190" fill="#1c2c32" font-family="Segoe UI,DejaVu Sans,sans-serif" font-size="20" font-weight="400">Workspace tools. On your terms.</text></g><g transform="translate(817 205) scale(.84)"><rect width="860" height="230" fill="#1c2c32"/><g transform="translate(48 34) scale(1.28)"><path fill="#f5f2e9" d="M18 96V24h22l24 24v28L40 52v44z"/><path fill="#ea693c" d="M68 48l22-24h22v72H90V52L68 76z"/></g><g transform="translate(243 59) scale(1.58)" fill="none" stroke="#f5f2e9" stroke-width="7" stroke-linecap="round" stroke-linejoin="round"><path d="M0 56V24Q0 12 12 12Q24 12 24 24V56M24 24Q24 12 36 12Q48 12 48 24V56 M106 12V56M106 34a22 22 0 1 0-44 0a22 22 0 1 0 44 0 M126 56V10Q126-6 145-6M115 18H143 M183 18C169 6 150 13 152 25C153 38 180 33 181 46C182 59 162 62 150 51 M203 26V56 M225-5V44Q225 56 238 56"/><circle cx="203" cy="8" r="0.8" stroke-width="8"/></g><text x="242" y="190" fill="#f5f2e9" font-family="Segoe UI,DejaVu Sans,sans-serif" font-size="20" font-weight="400">Workspace tools. On your terms.</text></g><text x="70" y="445" fill="#697c80" font-family="Segoe UI,DejaVu Sans,sans-serif" font-size="16" font-weight="400">01  PRIMARY / LIGHT</text><text x="832" y="445" fill="#697c80" font-family="Segoe UI,DejaVu Sans,sans-serif" font-size="16" font-weight="400">02  PRIMARY / DARK</text><g transform="translate(70 484) scale(1.05)"><path fill="#1c2c32" d="M18 96V24h22l24 24v28L40 52v44z"/><path fill="#ea693c" d="M68 48l22-24h22v72H90V52L68 76z"/></g><g transform="translate(237 484) scale(1.05)"><path fill="#1c2c32" d="M18 96V24h22l24 24v28L40 52v44z"/><path fill="#1c2c32" d="M68 48l22-24h22v72H90V52L68 76z"/></g><text x="425" y="520" fill="#697c80" font-family="Segoe UI,DejaVu Sans,sans-serif" font-size="16" font-weight="400">03  STANDALONE / SCALE</text><g transform="translate(428 551) scale(0.125)"><path fill="#1c2c32" d="M18 96V24h22l24 24v28L40 52v44z"/><path fill="#ea693c" d="M68 48l22-24h22v72H90V52L68 76z"/></g><text x="428" y="653" fill="#697c80" font-family="Segoe UI,DejaVu Sans,sans-serif" font-size="14" font-weight="400">16 px</text><g transform="translate(505 551) scale(0.1875)"><path fill="#1c2c32" d="M18 96V24h22l24 24v28L40 52v44z"/><path fill="#ea693c" d="M68 48l22-24h22v72H90V52L68 76z"/></g><text x="505" y="653" fill="#697c80" font-family="Segoe UI,DejaVu Sans,sans-serif" font-size="14" font-weight="400">24 px</text><g transform="translate(594 551) scale(0.25)"><path fill="#1c2c32" d="M18 96V24h22l24 24v28L40 52v44z"/><path fill="#ea693c" d="M68 48l22-24h22v72H90V52L68 76z"/></g><text x="594" y="653" fill="#697c80" font-family="Segoe UI,DejaVu Sans,sans-serif" font-size="14" font-weight="400">32 px</text><g transform="translate(697 551) scale(0.375)"><path fill="#1c2c32" d="M18 96V24h22l24 24v28L40 52v44z"/><path fill="#ea693c" d="M68 48l22-24h22v72H90V52L68 76z"/></g><text x="697" y="653" fill="#697c80" font-family="Segoe UI,DejaVu Sans,sans-serif" font-size="14" font-weight="400">48 px</text><g transform="translate(814 551) scale(0.5)"><path fill="#1c2c32" d="M18 96V24h22l24 24v28L40 52v44z"/><path fill="#ea693c" d="M68 48l22-24h22v72H90V52L68 76z"/></g><text x="814" y="653" fill="#697c80" font-family="Segoe UI,DejaVu Sans,sans-serif" font-size="14" font-weight="400">64 px</text><rect x="1055" y="520" width="110" height="84" rx="8" fill="#1c2c32"/><text x="1055" y="637" fill="#697c80" font-family="Segoe UI,DejaVu Sans,sans-serif" font-size="14" font-weight="400">INK</text><rect x="1210" y="520" width="110" height="84" rx="8" fill="#ea693c"/><text x="1210" y="637" fill="#697c80" font-family="Segoe UI,DejaVu Sans,sans-serif" font-size="14" font-weight="400">EMBER</text><rect x="1365" y="520" width="110" height="84" rx="8" fill="#dfded5"/><text x="1365" y="637" fill="#697c80" font-family="Segoe UI,DejaVu Sans,sans-serif" font-size="14" font-weight="400">PAPER</text><text x="70" y="720" fill="#697c80" font-family="Segoe UI,DejaVu Sans,sans-serif" font-size="16" font-weight="400">04  SOCIAL PREVIEW / 1280 × 640</text><g transform="translate(70 755) scale(.93)"><rect width="1280" height="640" fill="#1c2c32"/><path d="M1000 0v640M0 496h1280" stroke="#35464b"/><g transform="translate(55 52) scale(1.2)"><path fill="#f5f2e9" d="M18 96V24h22l24 24v28L40 52v44z"/><path fill="#ea693c" d="M68 48l22-24h22v72H90V52L68 76z"/></g><g transform="translate(242 76) scale(1.65)" fill="none" stroke="#f5f2e9" stroke-width="7" stroke-linecap="round" stroke-linejoin="round"><path d="M0 56V24Q0 12 12 12Q24 12 24 24V56M24 24Q24 12 36 12Q48 12 48 24V56 M106 12V56M106 34a22 22 0 1 0-44 0a22 22 0 1 0 44 0 M126 56V10Q126-6 145-6M115 18H143 M183 18C169 6 150 13 152 25C153 38 180 33 181 46C182 59 162 62 150 51 M203 26V56 M225-5V44Q225 56 238 56"/><circle cx="203" cy="8" r="0.8" stroke-width="8"/></g><text x="76" y="315" fill="#f5f2e9" font-family="Segoe UI,DejaVu Sans,sans-serif" font-size="68" font-weight="600">Your agent.</text><text x="76" y="394" fill="#f5f2e9" font-family="Segoe UI,DejaVu Sans,sans-serif" font-size="68" font-weight="600">Your workspace.</text><text x="80" y="553" fill="#f5f2e9" font-family="Segoe UI,DejaVu Sans,sans-serif" font-size="26" font-weight="400">MCP tools for Windows + Linux</text><text x="80" y="592" fill="#aab8b6" font-family="Segoe UI,DejaVu Sans,sans-serif" font-size="19" font-weight="400">Read only by default. Capabilities you choose.</text><g transform="translate(977 207) scale(2.0)"><path fill="#f5f2e9" d="M18 96V24h22l24 24v28L40 52v44z"/><path fill="#ea693c" d="M68 48l22-24h22v72H90V52L68 76z"/></g></g><text x="1308" y="815" fill="#697c80" font-family="Segoe UI,DejaVu Sans,sans-serif" font-size="15" font-weight="600">SOURCE</text><text x="1308" y="850" fill="#1c2c32" font-family="Segoe UI,DejaVu Sans,sans-serif" font-size="17" font-weight="400">Editable SVG</text><text x="1308" y="900" fill="#1c2c32" font-family="Segoe UI,DejaVu Sans,sans-serif" font-size="17" font-weight="400">Original glyphs</text><text x="1308" y="950" fill="#1c2c32" font-family="Segoe UI,DejaVu Sans,sans-serif" font-size="17" font-weight="400">No font bundle</text><text x="70" y="1393" fill="#697c80" font-family="Segoe UI,DejaVu Sans,sans-serif" font-size="16" font-weight="400">MAFSIL   /   Original vector identity   /   MIT</text></svg>
