<svg xmlns="http://www.w3.org/2000/svg" width="400" height="900" viewBox="0 0 400 900" role="img" aria-label="Mafsil capabilities, arranged for small screens"><title>Mafsil capabilities, arranged for small screens</title><rect x="0" y="0" width="400" height="900" rx="24" fill="#F1F7F8"/><text x="32" y="48" font-family="Segoe UI,DejaVu Sans,sans-serif" font-size="29" font-weight="650" fill="#163447">One connection.</text><text x="32" y="83" font-family="Segoe UI,DejaVu Sans,sans-serif" font-size="29" font-weight="650" fill="#163447">Explicit capabilities.</text><rect x="32" y="122" width="336" height="108" rx="18" fill="#FFFFFF" stroke="#C7D9DF" stroke-width="1.5"/><text x="56" y="164" font-family="Segoe UI,DejaVu Sans,sans-serif" font-size="28" font-weight="600" fill="#163447">MCP client</text><text x="56" y="202" font-family="Segoe UI,DejaVu Sans,sans-serif" font-size="21" font-weight="400" fill="#526B78">Local stdio connection</text><polyline points="200,232 200,269" fill="none" stroke="#007C83" stroke-width="3" stroke-linejoin="round"/><path d="M193.0,261.0L200.0,269.0L207.0,261.0" fill="none" stroke="#007C83" stroke-width="3" stroke-linecap="round" stroke-linejoin="round"/><rect x="32" y="274" width="336" height="134" rx="18" fill="#163447"/><g transform="translate(48 286) scale(0.55)"><path d="M20 108V32C20 25.4 25.4 20 32 20H35L60 47V77L40 56V108Z" fill="#F1F7F8"/><path d="M20 108V32C20 25.4 25.4 20 32 20H35L60 47V77L40 56V108Z" transform="translate(128 0) scale(-1 1)" fill="#6AE6CA"/></g><g transform="translate(133 299) scale(0.57)"><g fill="none" stroke="#F1F7F8" stroke-width="9" stroke-linecap="round" stroke-linejoin="round"><path d="M5 80V35C5 24 12 18 24 18C36 18 43 25 43 36V80M43 36C43 25 50 18 62 18C74 18 81 25 81 36V80"/><path d="M158 49C158 31 147 18 131 18C114 18 103 31 103 49C103 67 114 80 131 80C147 80 158 67 158 49M158 18V80"/><path d="M192 80V19C192 6 199 0 212 0H218M177 30H216"/><path d="M270 25C257 14 233 16 230 31C225 53 270 44 270 64C270 83 240 87 228 74"/><path d="M292 32V80"/><path d="M324 0V64C324 76 329 80 342 80"/></g><circle cx="292" cy="9" r="5.2" fill="#F1F7F8"/></g><text x="59" y="383" font-family="Segoe UI,DejaVu Sans,sans-serif" font-size="21" font-weight="400" fill="#F1F7F8">Read only by default</text><path d="M200 408V430H20V703" fill="none" stroke="#007C83" stroke-width="3"/><polyline points="20,513 43,513" fill="none" stroke="#007C83" stroke-width="3" stroke-linejoin="round"/><path d="M35.0,506.0L43.0,513.0L35.0,520.0" fill="none" stroke="#007C83" stroke-width="3" stroke-linecap="round" stroke-linejoin="round"/><polyline points="20,703 43,703" fill="none" stroke="#007C83" stroke-width="3" stroke-linejoin="round"/><path d="M35.0,696.0L43.0,703.0L35.0,710.0" fill="none" stroke="#007C83" stroke-width="3" stroke-linecap="round" stroke-linejoin="round"/><rect x="48" y="445" width="320" height="146" rx="18" fill="#FFFFFF" stroke="#C7D9DF" stroke-width="1.5"/><text x="69" y="487" font-family="Segoe UI,DejaVu Sans,sans-serif" font-size="24" font-weight="600" fill="#163447">Workspace files</text><text x="69" y="527" font-family="Segoe UI,DejaVu Sans,sans-serif" font-size="20" font-weight="400" fill="#526B78">Read and inspect</text><text x="69" y="558" font-family="Segoe UI,DejaVu Sans,sans-serif" font-size="20" font-weight="400" fill="#526B78">Enable precise edits</text><rect x="48" y="635" width="320" height="146" rx="18" fill="#FFFFFF" stroke="#C7D9DF" stroke-width="1.5"/><text x="69" y="677" font-family="Segoe UI,DejaVu Sans,sans-serif" font-size="24" font-weight="600" fill="#163447">Commands + terminals</text><text x="69" y="717" font-family="Segoe UI,DejaVu Sans,sans-serif" font-size="20" font-weight="400" fill="#526B78">Explicitly enabled</text><text x="69" y="748" font-family="Segoe UI,DejaVu Sans,sans-serif" font-size="20" font-weight="400" fill="#526B78">Uses account permissions</text><text x="32" y="838" font-family="Segoe UI,DejaVu Sans,sans-serif" font-size="20" font-weight="400" fill="#526B78">File tools stay in your workspace.</text></svg>
